# xmcd CD database file
#
# Track frame offsets:
#	150
#	28502
#	54467
#	88783
#	114361
#	142374
#
# Disc length: 2313 seconds
#
# Revision: 2
# Processed by: cddbd v1.5.2PL0 Copyright (c) Steve Scherf et al.
# Submitted via: CDex 1.70beta2
#
DISCID=4f090706
DTITLE=Elvin Jones - Mr. Jones
DYEAR=1972
DGENRE=Jazz
TTITLE0=One's Native Place
TTITLE1=GEE GEE
TTITLE2=Mr. Jones
TTITLE3=What's Up - That's It
TTITLE4=Soultrane
TTITLE5=New Breed
EXTD=YEAR: 1972
EXTT0=
EXTT1=
EXTT2=
EXTT3=
EXTT4=
EXTT5=
PLAYORDER=
